# xmcd
#
# Track frame offsets:
#	150
#	10567
#	21805
#	33917
#	43770
#	56712
#	69015
#	79645
#	92025
#	106037
#	119152
#	132390
#	145682
#	157715
#	174445
#	186677
#	197647
#	210195
#	223787
#	238917
#	253757
#	269350
#
# Disc length: 3798 seconds
#
# Revision: 3
# Processed by: cddbd v1.5.2PL0 Copyright (c) Steve Scherf et al.
# Submitted via: audiograbber 1.83.01
#
DISCID=2f0ed416
DTITLE=Glen Campbell - The Essential Glen Campbell - Volume 3
DYEAR=1900
DGENRE=Oldies
TTITLE0=Beautiful Brown Eyes
TTITLE1=Tomorrow Never Comes
TTITLE2=Guess I'm Dumb
TTITLE3=Sassy
TTITLE4=Crying
TTITLE5=By The Time I Get To Phoenix
TTITLE6=They'll Never Take Her Love From Me
TTITLE7=I Wanna Live
TTITLE8=Wichita Lineman
TTITLE9=Turn Around, Look At Me
TTITLE10=Where's The Playground Susie
TTITLE11=Honey Come Back'
TTITLE12=Tequila
TTITLE13=Today Is Mine
TTITLE14=I Will Never Pass This Way Again
TTITLE15=I'm So Lonesome I Could Cry
TTITLE16=Bonaprte's Retreat
TTITLE17=Annie's Song
TTITLE18=Don't Pull Your Love - Then You Can Tell Me Goodbye
TTITLE19=Can You Fool
TTITLE20=All The Way
TTITLE21=Learnin' The Blues
EXTD=
EXTT0=
EXTT1=
EXTT2=
EXTT3=
EXTT4=
EXTT5=
EXTT6=
EXTT7=
EXTT8=
EXTT9=
EXTT10=
EXTT11=
EXTT12=
EXTT13=
EXTT14=
EXTT15=
EXTT16=
EXTT17=
EXTT18=
EXTT19=
EXTT20=
EXTT21=
PLAYORDER=
